<svg width="34" height="34" viewBox="0 0 34 34" fill="none" xmlns="http://www.w3.org/2000/svg">
<circle cx="17" cy="17" r="17" fill="white"/>
<g clip-path="url(#clip0_2105_2907)">
<path d="M20.481 10H14.519C12.5786 10 11 11.5786 11 13.519V19.4811C11 21.4214 12.5786 23 14.519 23H20.4811C22.4214 23 24 21.4214 24 19.4811V13.519C24 11.5786 22.4214 10 20.481 10V10ZM23.2379 19.4811C23.2379 21.0012 22.0012 22.2379 20.481 22.2379H14.519C12.9988 22.2379 11.7621 21.0012 11.7621 19.4811V13.519C11.7621 11.9988 12.9988 10.7621 14.519 10.7621H20.4811C22.0012 10.7621 23.2379 11.9988 23.2379 13.519V19.4811Z" fill="black"/>
<path d="M17.5 12.9453C15.54 12.9453 13.9454 14.5399 13.9454 16.4999C13.9454 18.4599 15.54 20.0545 17.5 20.0545C19.46 20.0545 21.0546 18.4599 21.0546 16.4999C21.0546 14.5399 19.46 12.9453 17.5 12.9453ZM17.5 19.2924C15.9603 19.2924 14.7075 18.0397 14.7075 16.4999C14.7075 14.9602 15.9603 13.7074 17.5 13.7074C19.0398 13.7074 20.2925 14.9602 20.2925 16.4999C20.2925 18.0397 19.0398 19.2924 17.5 19.2924Z" fill="black"/>
<path d="M21.1396 11.6831C20.5603 11.6831 20.0892 12.1543 20.0892 12.7334C20.0892 13.3127 20.5603 13.7839 21.1396 13.7839C21.7188 13.7839 22.19 13.3127 22.19 12.7334C22.19 12.1542 21.7188 11.6831 21.1396 11.6831ZM21.1396 13.0217C20.9807 13.0217 20.8513 12.8923 20.8513 12.7334C20.8513 12.5745 20.9807 12.4452 21.1396 12.4452C21.2986 12.4452 21.4279 12.5745 21.4279 12.7334C21.4279 12.8923 21.2986 13.0217 21.1396 13.0217Z" fill="black"/>
</g>
<defs>
<clipPath id="clip0_2105_2907">
<rect width="13" height="13" fill="white" transform="translate(11 10)"/>
</clipPath>
</defs>
</svg>
