<svg width="34" height="34" viewBox="0 0 34 34" fill="none" xmlns="http://www.w3.org/2000/svg">
<circle cx="17" cy="17" r="17" fill="white"/>
<g clip-path="url(#clip0_2105_2921)">
<path d="M21.9972 22V21.9996H22V17.9653C22 15.9917 21.5751 14.4714 19.2678 14.4714C18.1587 14.4714 17.4143 15.0801 17.1105 15.6571H17.0784V14.6557H14.8907V21.9996H17.1687V18.3631C17.1687 17.4057 17.3502 16.4799 18.5359 16.4799C19.7042 16.4799 19.7216 17.5725 19.7216 18.4246V22H21.9972Z" fill="black"/>
<path d="M11.1815 14.656H13.4622V21.9999H11.1815V14.656Z" fill="black"/>
<path d="M12.3209 11C11.5917 11 11 11.5917 11 12.3209C11 13.0501 11.5917 13.6542 12.3209 13.6542C13.0501 13.6542 13.6418 13.0501 13.6418 12.3209C13.6414 11.5917 13.0497 11 12.3209 11V11Z" fill="black"/>
</g>
<defs>
<clipPath id="clip0_2105_2921">
<rect width="11" height="11" fill="white" transform="translate(11 11)"/>
</clipPath>
</defs>
</svg>
